<svg xmlns="http://www.w3.org/2000/svg" width="24" height="16" viewBox="0 0 24 16"><g><g><path fill="#fabb00" d="M23.929 2.632l-1.333 10.854c-.144 1.345-1.31 2.41-2.65 2.41H6.98a.996.996 0 0 1-.998-.994c0-.549.467-.902 1.018-.902h13c.313 0 .577-.4.613-.74l1.21-9.843-8.193 7.26a.999.999 0 0 1-1.41-.083L4.238 1.65c-.034-.039-.047-.086-.074-.127-.04-.06-.08-.116-.107-.183-.025-.068-.031-.137-.042-.208-.007-.048-.029-.092-.029-.143 0-.01.006-.018.006-.029.002-.073.025-.142.043-.213.015-.055.02-.112.042-.163.023-.051.064-.093.096-.14.04-.061.077-.124.13-.174.008-.007.01-.017.018-.024.038-.033.085-.046.127-.073.06-.04.116-.08.184-.107.068-.025.138-.031.21-.042.048-.007.091-.029.142-.029h16.458c.719 0 1.409.309 1.894.846a2.28 2.28 0 0 1 .594 1.79zM7.206 1.984l5.843 6.546 7.389-6.546zM6.98 5.959a.996.996 0 0 1-.998.994H2.988a.996.996 0 0 1-.997-.994c0-.55.446-.994.997-.994h2.994c.55 0 .998.445.998.994zm.998 2.98a.996.996 0 0 1-.998.995H.993a.996.996 0 0 1-.998-.994c0-.549.447-.994.998-.994H6.98c.55 0 .998.445.998.994zm-3.992 1.988h4.99c.55 0 .997.445.997.994a.996.996 0 0 1-.998.994H3.986a.996.996 0 0 1-.998-.994c0-.549.447-.994.998-.994z"/></g></g></svg>