<svg xmlns="http://www.w3.org/2000/svg" width="23.82" height="23.875" viewBox="0 0 23.82 23.875">
  <defs>
    <style>
      .cls-1 {
        fill: #222;
        fill-rule: evenodd;
      }
    </style>
  </defs>
  <path id="satelite" class="cls-1" d="M9116.31,325.693l-3.64,1.732a0.045,0.045,0,0,1-.02.006,1.014,1.014,0,0,1-.4.09h0a0.954,0.954,0,0,1-.46-0.133c-0.04-.022-0.08-0.047-0.12-0.074a0.629,0.629,0,0,1-.12-0.085l-3.88-3.9a0.015,0.015,0,0,1-.01-0.016,0.9,0.9,0,0,1-.14-0.2,0.707,0.707,0,0,1-.07-0.125,0.632,0.632,0,0,1-.04-0.191,1.163,1.163,0,0,1-.03-0.183,0.9,0.9,0,0,1,.03-0.158,0.843,0.843,0,0,1,.05-0.221v-0.02l1.67-3.654a0.973,0.973,0,0,1,.72-0.566,1,1,0,0,1,.88.272l5.86,5.816a1.013,1.013,0,0,1,.28.876A1,1,0,0,1,9116.31,325.693Zm-5.97-5.006-0.78,1.726,2.9,2.911,1.72-.822Zm0.85,7.986a0.979,0.979,0,0,1-.29.7l-7.94,7.97a0.985,0.985,0,0,1-1.4,0l-3.97-3.985a1,1,0,0,1,0-1.408l7.94-7.971a0.986,0.986,0,0,1,1.4,0l3.97,3.985A0.982,0.982,0,0,1,9111.19,328.673Zm-4.96-2.577-6.54,6.562,2.57,2.576,6.54-6.561Zm-8.5.558a0.968,0.968,0,0,1-.7.291,1,1,0,0,1-.7-1.7l3.97-3.984a0.993,0.993,0,0,1,1.4,1.409Zm-2.97-2.989a1,1,0,0,1-1.41,0,1,1,0,0,1,0-1.409l3.97-3.984a1,1,0,0,1,1.41,0,1.013,1.013,0,0,1,0,1.409Zm17.45,9.551a0.993,0.993,0,0,1,1.4,1.409l-3.97,3.984a0.965,0.965,0,0,1-.7.292,0.982,0.982,0,0,1-.7-0.292,1,1,0,0,1,0-1.409Zm2.98,2.989a0.993,0.993,0,0,1,1.4,1.409l-3.97,3.984a0.985,0.985,0,0,1-1.4,0,1,1,0,0,1,0-1.409Z" transform="translate(-9093.06 -318)"/>
</svg>
